<?xml version="1.0" standalone="no"?>
<!DOCTYPE svg PUBLIC "-//W3C//DTD SVG 20010904//EN"
 "http://www.w3.org/TR/2001/REC-SVG-20010904/DTD/svg10.dtd">
<svg version="1.0" xmlns="http://www.w3.org/2000/svg"
 width="1024.000000pt" height="1024.000000pt" viewBox="0 0 1024.000000 1024.000000"
 preserveAspectRatio="xMidYMid meet">
<metadata>
Created by potrace 1.11, written by Peter Selinger 2001-2013
</metadata>
<g transform="translate(0.000000,1024.000000) scale(0.100000,-0.100000)"
fill="#000000" stroke="none">
<path d="M4580 9410 c-168 -18 -211 -25 -330 -55 -103 -26 -236 -73 -355 -125
-107 -48 -172 -80 -400 -200 -60 -32 -144 -75 -185 -96 -41 -20 -77 -40 -80
-43 -3 -3 -57 -32 -120 -64 -203 -102 -385 -198 -394 -207 -6 -6 -15 -10 -22
-10 -13 0 -154 -80 -242 -137 -227 -148 -606 -547 -728 -768 -6 -11 -29 -51
-51 -90 -22 -38 -76 -140 -120 -225 -75 -144 -113 -218 -248 -475 -188 -360
-266 -511 -270 -529 -1 -6 -7 -22 -12 -36 -82 -194 -139 -388 -158 -540 -4
-29 -9 -62 -11 -74 -21 -106 -20 -492 1 -526 2 -3 6 -31 9 -61 3 -30 8 -63 10
-74 11 -63 22 -129 30 -195 3 -25 8 -56 11 -70 3 -14 12 -70 21 -125 8 -55 17
-111 20 -125 2 -14 7 -43 10 -65 2 -22 12 -83 20 -135 9 -52 17 -104 19 -115
7 -51 17 -115 25 -165 5 -30 12 -75 16 -100 3 -25 8 -54 10 -65 44 -296 87
-443 203 -685 81 -171 199 -364 286 -471 66 -80 1164 -1177 1232 -1231 111
-87 220 -153 398 -241 309 -154 510 -217 835 -261 87 -12 120 -17 200 -31 47
-8 108 -17 135 -21 28 -3 59 -8 70 -10 11 -2 79 -13 150 -24 263 -41 445 -70
475 -75 32 -6 75 -12 180 -26 202 -27 525 -15 710 28 36 8 73 16 83 18 65 14
291 88 295 98 2 4 9 7 15 7 7 0 40 13 75 30 34 16 62 27 62 24 0 -2 17 6 38
19 20 12 89 49 152 82 63 32 156 80 205 106 50 26 122 64 160 83 39 20 126 65
195 101 69 37 204 107 300 157 96 50 191 100 210 111 39 21 192 127 200 137 3
4 12 11 22 16 21 11 123 100 207 179 105 99 281 305 350 409 9 13 38 57 65 97
27 41 114 202 194 359 80 157 210 411 289 565 79 154 146 287 150 295 3 8 16
39 29 68 13 28 24 54 24 57 0 3 6 18 15 34 50 97 128 363 149 506 4 23 8 50
10 61 8 41 19 211 19 289 0 132 -16 331 -27 342 -2 2 -45 6 -97 9 -52 2 -107
7 -124 9 -16 3 -52 8 -80 11 -40 5 -151 27 -245 49 -38 8 -232 76 -276 96 -90
40 -209 102 -252 130 -24 16 -45 29 -48 29 -6 0 -47 28 -144 100 -103 76 -223
187 -334 309 -70 78 -196 243 -196 259 0 5 -4 12 -9 14 -13 5 -112 190 -154
288 -33 78 -84 220 -93 262 -2 10 -6 26 -8 36 -40 161 -54 258 -62 422 -4 69
-7 126 -8 127 -1 1 -51 4 -111 7 -307 13 -632 99 -869 228 -38 21 -71 38 -73
38 -9 0 -189 124 -253 174 -243 189 -462 448 -591 696 -24 47 -47 87 -51 88
-5 2 -8 9 -8 15 0 7 -18 52 -39 102 -22 49 -42 101 -44 115 -3 14 -10 37 -15
51 -14 34 -59 241 -68 304 -3 28 -8 53 -10 56 -1 3 -6 59 -9 125 -4 65 -8 120
-9 121 -1 2 -27 5 -58 8 -30 3 -66 8 -79 11 -38 8 -347 11 -419 4z m-125
-2425 c33 -9 76 -23 95 -32 140 -65 263 -212 301 -363 31 -120 6 -300 -52
-381 -10 -15 -19 -30 -19 -33 0 -22 -122 -140 -177 -173 -87 -51 -179 -74
-283 -72 -53 1 -112 8 -135 16 -22 8 -45 16 -52 17 -37 7 -135 69 -182 116
-164 162 -203 428 -93 633 38 70 123 163 183 200 19 12 36 24 39 27 7 7 67 29
120 44 67 18 187 19 255 1z m2710 -2157 c227 -65 387 -274 387 -508 1 -145
-51 -274 -150 -376 -44 -45 -134 -114 -148 -114 -4 0 -20 -6 -37 -14 -72 -32
-217 -48 -293 -32 -54 11 -125 36 -175 61 -107 55 -217 197 -250 325 -27 108
-15 265 28 360 52 113 169 229 281 277 107 46 241 54 357 21z m-3234 -534 c82
-24 177 -80 234 -138 51 -52 122 -146 109 -146 -3 0 -1 -7 6 -15 27 -33 49
-148 46 -240 -3 -103 -27 -181 -80 -260 -35 -52 -117 -141 -151 -163 -41 -26
-129 -65 -176 -77 -57 -15 -181 -17 -241 -3 -24 5 -51 11 -60 13 -38 8 -157
78 -194 114 -174 167 -217 447 -99 656 66 118 201 224 332 260 68 19 208 18
274 -1z"/>
</g>
</svg>
